# xmcd
#
# Track frame offsets:
# 150
# 21780
# 33787
# 45600
# 79065
# 92615
# 112085
# 126304
# 145598
# 164460
#
# Disc length: 2441 seconds
#
#
# Revision: 0
# Processed by: cddbd v1.5.2PL0 Copyright (c) Steve Scherf et al.
# Submitted via: FreeRIP 2.945 
#
DISCID=7a09870a
DTITLE=The Name of Our God
DYEAR=1996
DGENRE=Christian Pop
TTITLE0=Some May Trust In Chariots
TTITLE1=Firm Fundation
TTITLE2=Christ is King of All Creation
TTITLE3=Awesome in this Place
TTITLE4=Awesome in this Place (Reprise)
TTITLE5=You are Glorious
TTITLE6=The Light of Life
TTITLE7=Medley: I Belive in Jesus/The Apostle's Creed/I Belive in Jesus
TTITLE8=I Offer My Life
TTITLE9=Finale
EXTD=
EXTT0=
EXTT1=
EXTT2=
EXTT3=
EXTT4=
EXTT5=
EXTT6=
EXTT7=
EXTT8=
EXTT9=
PLAYORDER=
